<?xml version="1.0" encoding="UTF-8" standalone="no"?>
<!-- Created with Inkscape (http://www.inkscape.org/) -->

<svg
   xmlns:dc="http://purl.org/dc/elements/1.1/"
   xmlns:cc="http://creativecommons.org/ns#"
   xmlns:rdf="http://www.w3.org/1999/02/22-rdf-syntax-ns#"
   xmlns:svg="http://www.w3.org/2000/svg"
   xmlns="http://www.w3.org/2000/svg"
   xmlns:sodipodi="http://sodipodi.sourceforge.net/DTD/sodipodi-0.dtd"
   xmlns:inkscape="http://www.inkscape.org/namespaces/inkscape"
   version="1.1"
   id="svg2"
   xml:space="preserve"
   width="866.19336"
   height="264.56668"
   viewBox="0 0 866.19336 264.56668"
   sodipodi:docname="le_original_pantone_2019.svg"
   inkscape:version="0.92.4 (5da689c313, 2019-01-14)"><metadata
     id="metadata8"><rdf:RDF><cc:Work
         rdf:about=""><dc:format>image/svg+xml</dc:format><dc:type
           rdf:resource="http://purl.org/dc/dcmitype/StillImage" /><dc:title></dc:title></cc:Work></rdf:RDF></metadata><defs
     id="defs6"><clipPath
       clipPathUnits="userSpaceOnUse"
       id="clipPath24"><path
         d="M 0,198.425 H 649.646 V 0 H 0 Z"
         id="path22"
         inkscape:connector-curvature="0" /></clipPath><clipPath
       clipPathUnits="userSpaceOnUse"
       id="clipPath76"><path
         d="M 0,198.425 H 649.646 V 0 H 0 Z"
         id="path74"
         inkscape:connector-curvature="0" /></clipPath></defs><sodipodi:namedview
     pagecolor="#ffffff"
     bordercolor="#666666"
     borderopacity="1"
     objecttolerance="10"
     gridtolerance="10"
     guidetolerance="10"
     inkscape:pageopacity="0"
     inkscape:pageshadow="2"
     inkscape:window-width="1850"
     inkscape:window-height="1136"
     id="namedview4"
     showgrid="false"
     inkscape:zoom="1.3518562"
     inkscape:cx="610.95572"
     inkscape:cy="131.62281"
     inkscape:window-x="70"
     inkscape:window-y="27"
     inkscape:window-maximized="1"
     inkscape:current-layer="g10" /><g
     id="g10"
     inkscape:groupmode="layer"
     inkscape:label="le_original_pantone_2019"
     transform="matrix(1.3333333,0,0,-1.3333333,0,264.56667)"><path
       d="m 198.406,164.41 h 417.38 v 5.669 h -417.38 z"
       style="fill:#005db9;fill-opacity:1;fill-rule:nonzero;stroke:none"
       id="path12"
       inkscape:connector-curvature="0" /><path
       d="m 198.406,28.348 h 288.28 v 5.669 h -288.28 z"
       style="fill:#005db9;fill-opacity:1;fill-rule:nonzero;stroke:none"
       id="path14"
       inkscape:connector-curvature="0" /><path
       d="m 524.492,28.348 h 91.292 v 5.669 h -91.292 z"
       style="fill:#005db9;fill-opacity:1;fill-rule:nonzero;stroke:none"
       id="path16"
       inkscape:connector-curvature="0" /><g
       id="g18"><g
         id="g20"
         clip-path="url(#clipPath24)"><g
           id="g26"
           transform="translate(208.8813,101.8984)"><path
             d="m 0,0 h 21.087 c 0,4.594 -0.598,7.449 -1.794,8.568 -1.196,1.117 -4.156,1.677 -8.883,1.677 C 5.74,10.245 2.783,9.564 1.53,8.217 0.509,7.093 0,4.356 0,0 m 21.069,-13.665 h 11.294 c 0,-6.722 -1.967,-11.122 -5.905,-13.203 -2.803,-1.49 -8.143,-2.23 -16.021,-2.23 -8.826,0 -14.737,1.814 -17.716,5.451 -2.628,3.153 -3.935,9.282 -3.935,18.397 0,9.042 1.25,15.182 3.759,18.395 2.919,3.814 8.884,5.719 17.892,5.719 9.426,0 15.513,-1.783 18.262,-5.348 2.443,-3.148 3.664,-10.039 3.664,-20.663 L 0,-7.147 c 0,-5.493 0.48,-8.978 1.437,-10.473 1.256,-1.907 4.243,-2.861 8.964,-2.861 3.94,0 6.511,0.263 7.711,0.797 1.972,0.883 2.957,2.888 2.957,6.019"
             style="fill:#2d2a26;fill-opacity:1;fill-rule:nonzero;stroke:none"
             id="path28"
             inkscape:connector-curvature="0" /></g><g
           id="g30"
           transform="translate(271.5513,112.1431)"><path
             d="m 0,0 c -4.544,0 -7.487,-1.276 -8.819,-3.832 -0.91,-1.722 -1.365,-5.104 -1.365,-10.153 0,-6.409 0.394,-10.536 1.182,-12.379 1.271,-2.91 4.273,-4.362 9.002,-4.362 5.335,0 8.668,1.393 10,4.185 0.853,1.782 1.276,5.968 1.276,12.556 0,5.105 -0.578,8.552 -1.727,10.333 C 8.031,-1.217 4.849,0 0,0 m 11.276,-38.857 0.344,7.073 h -0.344 c -2.327,-5.043 -7.223,-7.558 -14.685,-7.558 -7.878,0 -13.07,2.441 -15.572,7.324 -1.616,3.15 -2.422,9.166 -2.422,18.04 0,7.799 0.989,13.278 2.963,16.436 2.575,4.108 7.601,6.162 15.084,6.162 7.538,0 12.269,-2.256 14.185,-6.758 h 0.447 v 26.432 h 11.217 v -67.151 z"
             style="fill:#2d2a26;fill-opacity:1;fill-rule:nonzero;stroke:none"
             id="path32"
             inkscape:connector-curvature="0" /></g><g
           id="g34"
           transform="translate(346.2114,73.2861)"><path
             d="m 0,0 h -10.892 v 7.248 h -0.326 c -2.155,-5.156 -7.128,-7.733 -14.918,-7.733 -10.541,0 -15.808,4.495 -15.808,13.499 v 33.971 h 11.211 V 17.422 c 0,-3.637 0.423,-6.016 1.261,-7.149 1.018,-1.429 3.225,-2.142 6.643,-2.142 4.19,0 7.149,0.909 8.884,2.721 1.735,1.817 2.608,4.844 2.608,9.072 l 0.119,27.061 H 0 Z"
             style="fill:#2d2a26;fill-opacity:1;fill-rule:nonzero;stroke:none"
             id="path36"
             inkscape:connector-curvature="0" /></g><g
           id="g38"
           transform="translate(386.6309,91.1826)"><path
             d="m 0,0 h 11.295 c 0,-7.556 -1.732,-12.613 -5.191,-15.169 -2.865,-2.142 -8.266,-3.213 -16.198,-3.213 -8.773,0 -14.557,1.843 -17.364,5.537 -2.441,3.154 -3.668,9.287 -3.668,18.395 0,8.991 1.195,15.065 3.578,18.223 2.926,3.87 8.739,5.807 17.454,5.807 7.636,0 12.946,-0.983 15.931,-2.946 3.636,-2.386 5.458,-7.053 5.458,-14.01 L 0,12.624 c 0,3.603 -0.81,5.937 -2.422,7.005 -1.256,0.889 -3.828,1.331 -7.711,1.331 -4.541,0 -7.383,-1.067 -8.516,-3.206 -0.843,-1.605 -1.256,-5.674 -1.256,-12.204 0,-6.471 0.384,-10.478 1.165,-12.022 1.074,-2.196 3.939,-3.294 8.607,-3.294 4.303,0 7.067,0.577 8.294,1.732 C -0.618,-6.881 0,-4.202 0,0"
             style="fill:#2d2a26;fill-opacity:1;fill-rule:nonzero;stroke:none"
             id="path40"
             inkscape:connector-curvature="0" /></g><g
           id="g42"
           transform="translate(426.0449,94.4258)"><path
             d="m 0,0 c -3.728,0 -6.159,-0.271 -7.301,-0.812 -2.041,-0.957 -3.06,-2.926 -3.06,-5.911 0,-3.17 0.781,-5.198 2.343,-6.093 1.319,-0.778 3.992,-1.169 8.018,-1.169 3.662,0 6.155,0.358 7.478,1.074 1.978,1.075 2.971,3.139 2.971,6.188 0,2.926 -1.052,4.869 -3.152,5.82 C 5.973,-0.304 3.538,0 0,0 m 10.449,-21.14 0.364,5.909 h -0.267 c -1.011,-2.725 -3.043,-4.561 -6.083,-5.502 -1.908,-0.595 -4.746,-0.892 -8.5,-0.892 -6.028,0 -10.355,0.95 -12.978,2.854 -3.044,2.205 -4.564,6.214 -4.564,12.045 0,5.589 1.586,9.489 4.753,11.686 2.636,1.784 6.907,2.679 12.832,2.679 3.766,0 6.485,-0.241 8.164,-0.713 2.744,-0.769 4.723,-2.308 5.92,-4.619 h 0.359 v 6.09 c 0,4.057 -0.508,6.716 -1.523,7.969 -1.26,1.55 -4.103,2.328 -8.529,2.328 -2.991,0 -5.084,-0.332 -6.279,-0.986 -1.736,-0.957 -2.604,-2.807 -2.604,-5.557 h -11.303 c 0,6.126 2.032,10.201 6.094,12.223 2.624,1.309 7.308,1.963 14.052,1.963 8.054,0 13.491,-1.045 16.293,-3.129 3.343,-2.447 5.016,-7.425 5.016,-14.932 V -21.14 Z"
             style="fill:#2d2a26;fill-opacity:1;fill-rule:nonzero;stroke:none"
             id="path44"
             inkscape:connector-curvature="0" /></g><g
           id="g46"
           transform="translate(453.0391,111.6553)"><path
             d="M 0,0 V 8.616 H 5.855 V 19.189 H 17.074 V 8.616 H 35.169 V 0 H 17.074 v -23.994 c 0,-2.439 0.207,-4.014 0.63,-4.727 0.6,-1.012 2.009,-1.517 4.23,-1.517 2.816,0 4.554,1.039 5.222,3.128 0.295,0.954 0.442,3.214 0.442,6.787 h 9.99 c 0.121,-6.682 -0.779,-11.338 -2.69,-13.964 -2.213,-3.047 -6.513,-4.567 -12.91,-4.567 -6.092,0 -10.247,0.92 -12.457,2.77 -2.45,2.08 -3.676,6.074 -3.676,11.965 L 5.855,0 Z"
             style="fill:#2d2a26;fill-opacity:1;fill-rule:nonzero;stroke:none"
             id="path48"
             inkscape:connector-curvature="0" /></g><path
           d="m 510.669,73.286 h -11.221 v 46.985 h 11.221 z m 0,57.558 h -11.221 v 9.593 h 11.221 z"
           style="fill:#2d2a26;fill-opacity:1;fill-rule:nonzero;stroke:none"
           id="path50"
           inkscape:connector-curvature="0" /><g
           id="g52"
           transform="translate(541.7041,112.1431)"><path
             d="m 0,0 c -4.805,0 -7.862,-1.013 -9.184,-3.027 -1.142,-1.785 -1.708,-5.941 -1.708,-12.468 0,-6.474 0.566,-10.573 1.708,-12.295 1.257,-1.956 4.324,-2.936 9.184,-2.936 4.922,0 8.011,0.98 9.268,2.936 1.08,1.665 1.628,5.759 1.628,12.295 0,6.647 -0.548,10.801 -1.628,12.468 C 7.948,-1.013 4.859,0 0,0 m 0,8.62 c 9.43,0 15.571,-1.729 18.437,-5.186 2.448,-2.975 3.671,-9.254 3.671,-18.845 0,-9.523 -1.223,-15.778 -3.671,-18.753 C 15.571,-37.616 9.43,-39.342 0,-39.342 c -9.43,0 -15.579,1.726 -18.441,5.178 -2.449,2.975 -3.671,9.23 -3.671,18.753 0,9.591 1.222,15.87 3.671,18.845 C -15.579,6.891 -9.43,8.62 0,8.62"
             style="fill:#2d2a26;fill-opacity:1;fill-rule:nonzero;stroke:none"
             id="path54"
             inkscape:connector-curvature="0" /></g><g
           id="g56"
           transform="translate(573.3027,120.271)"><path
             d="m 0,0 h 11.211 v -7.07 h 0.358 c 1.137,3.082 3.103,5.189 5.913,6.315 2.022,0.827 4.969,1.247 8.85,1.247 5.96,0 10.133,-1.267 12.519,-3.803 2.383,-2.535 3.578,-6.78 3.578,-12.74 V -46.985 H 31.212 v 29.745 c 0,3.513 -0.599,5.912 -1.791,7.192 -1.198,1.282 -3.533,1.92 -6.993,1.92 -4.547,0 -7.629,-1.101 -9.239,-3.304 -1.32,-1.791 -1.978,-5.032 -1.978,-9.739 V -46.985 H 0 Z"
             style="fill:#2d2a26;fill-opacity:1;fill-rule:nonzero;stroke:none"
             id="path58"
             inkscape:connector-curvature="0" /></g><g
           id="g60"
           transform="translate(604.6787,125.0952)"><path
             d="M 0,0 V 6.313 H -2.358 V 7.158 H 3.315 V 6.313 H 0.947 L 0.947,0 Z"
             style="fill:#2d2a26;fill-opacity:1;fill-rule:nonzero;stroke:none"
             id="path62"
             inkscape:connector-curvature="0" /></g><g
           id="g64"
           transform="translate(608.9365,125.0952)"><path
             d="M 0,0 V 7.158 H 1.426 L 3.12,2.09 C 3.276,1.617 3.391,1.265 3.462,1.03 3.543,1.29 3.67,1.673 3.843,2.178 l 1.714,4.98 H 6.831 V 0 H 5.918 V 5.991 L 3.838,0 H 2.983 L 0.913,6.094 V 0 Z"
             style="fill:#2d2a26;fill-opacity:1;fill-rule:nonzero;stroke:none"
             id="path66"
             inkscape:connector-curvature="0" /></g></g></g><path
       d="m 29.309,29.29 h 139.84 V 169.131 H 29.309 Z"
       style="fill:#ffffff;fill-opacity:1;fill-rule:nonzero;stroke:none"
       id="path68"
       inkscape:connector-curvature="0" /><g
       id="g70"><g
         id="g72"
         clip-path="url(#clipPath76)"><g
           id="g78"
           transform="translate(159.8442,111.0034)"><path
             d="m 0,0 c -0.231,-4.357 -1.617,-9.786 -2.838,-13.413 -4.918,-14.611 -10.619,-23.668 -23.823,-23.668 -3.886,0 -10.783,1.034 -13.324,7.95 l -0.601,1.638 -1.082,-1.371 c -4.129,-5.23 -10.264,-8.248 -16.831,-8.279 -5.037,-0.024 -9.085,1.664 -11.704,4.883 l -0.718,0.883 -0.765,-0.844 c -2.797,-3.088 -7.668,-4.86 -13.363,-4.86 -4.474,0 -8.336,1.52 -10.876,4.278 l -0.694,0.752 -0.72,-0.727 c -2.825,-2.851 -7.276,-4.289 -12.872,-4.158 -6.79,0.162 -10.923,3.951 -11.057,10.141 -0.205,9.543 9.032,29.621 12.853,35.725 2.483,4.078 5.895,6.055 10.437,6.055 3.093,0 5.208,-0.647 6.463,-1.977 1.144,-1.211 1.37,-2.232 1.472,-4.687 l 0.131,-3.175 1.676,2.7 c 4.054,6.533 10.773,7.434 17.43,7.434 4.628,0 8.667,-1.702 10.289,-4.337 l 0.598,-0.97 0.866,0.738 c 3.429,2.915 8.27,4.522 13.629,4.522 5.847,0 10.097,-1.454 12.633,-4.322 0.576,-0.652 0.957,-1.108 1.488,-2.22 l 0.651,-1.365 0.976,1.155 c 3.711,4.39 8.779,6.615 15.069,6.615 4.98,0 8.759,-1.324 11.233,-3.933 C -0.27,7.89 0.173,3.286 0,0 m -14.536,20.414 c -5.991,0 -11.096,-1.605 -15.185,-4.773 -3.637,3.269 -8.764,4.86 -15.639,4.86 -5.239,0 -9.761,-1.121 -13.805,-3.425 -3.253,2.434 -6.871,3.525 -11.641,3.525 -5.751,0 -11.713,-0.525 -16.565,-4.185 -1.786,2.685 -5.087,3.894 -10.509,3.894 -6.451,0 -11.691,-3.009 -15.157,-8.702 -3.962,-6.327 -13.828,-27.158 -13.579,-38.742 0.189,-8.802 6.731,-14.866 16.279,-15.092 0.277,-0.006 0.552,-0.01 0.825,-0.01 h 0.002 c 5.021,0 9.309,1.081 12.757,3.215 3.282,-2.207 7.353,-3.371 11.816,-3.371 5.272,0 10.185,1.34 13.914,3.783 3.392,-2.498 7.699,-3.814 12.5,-3.814 6.274,0 12.082,2.068 16.852,5.99 3.408,-3.833 8.918,-5.932 15.634,-5.932 14.126,0 20.694,9.803 24.839,18.343 1.966,4.051 5.353,13.517 5.979,18.553 0.803,6.453 1.553,12.484 -2.833,18.589 -3.429,4.772 -9.128,7.294 -16.484,7.294"
             style="fill:#ffd700;fill-opacity:1;fill-rule:nonzero;stroke:none"
             id="path80"
             inkscape:connector-curvature="0" /></g><g
           id="g82"
           transform="translate(163.7817,105.6391)"><path
             d="m 0,0 c -0.633,-5.088 -4.073,-14.519 -5.9,-18.287 -4.903,-10.101 -11.454,-17.863 -24.075,-17.863 -6.742,0 -12.287,2.15 -15.531,6.283 -4.748,-4.162 -10.627,-6.341 -16.955,-6.341 -4.876,0 -9.184,1.408 -12.471,4.011 -3.626,-2.554 -8.519,-3.98 -13.943,-3.98 -4.531,0 -8.607,1.244 -11.796,3.543 -3.529,-2.342 -8.154,-3.506 -13.583,-3.377 -9.033,0.213 -15.27,5.943 -15.45,14.26 -0.237,11.05 9.071,31.277 13.456,38.281 3.282,5.391 8.291,8.294 14.43,8.294 6.664,0 9.079,-1.904 10.267,-4.327 5.14,4.367 11.956,4.617 16.807,4.617 5.357,0 8.717,-1.421 11.576,-3.697 3.947,2.369 8.474,3.599 13.871,3.599 6.897,0 12.02,-1.604 15.594,-5.137 4.167,3.468 9.387,5.049 15.23,5.049 7.724,0 12.808,-2.786 15.793,-6.94 C 1.527,12.132 0.775,6.234 0,0 M -134.473,-76.349 H 5.367 V 63.492 h -139.84 z"
             style="fill:#e1261c;fill-opacity:1;fill-rule:nonzero;stroke:none"
             id="path84"
             inkscape:connector-curvature="0" /></g><path
           d="M 168.129,30.296 H 30.298 V 168.127 H 168.129 Z M 28.348,28.345 h 141.73 V 170.078 H 28.348 Z"
           style="fill:#2d2a26;fill-opacity:1;fill-rule:nonzero;stroke:none"
           id="path86"
           inkscape:connector-curvature="0" /><g
           id="g88"
           transform="translate(163.7192,130.7153)"><path
             d="m 0,0 c -1.877,0 -3.391,-1.516 -3.391,-3.397 0,-1.879 1.514,-3.393 3.391,-3.393 1.883,0 3.398,1.514 3.398,3.393 C 3.398,-1.516 1.883,0 0,0 m 0,-0.671 c 1.51,0 2.738,-1.218 2.738,-2.726 0,-1.507 -1.228,-2.731 -2.738,-2.731 -1.506,0 -2.719,1.224 -2.719,2.731 0,1.508 1.213,2.726 2.719,2.726 M 1.73,-5.168 1.322,-4.46 c -0.355,0.619 -0.453,0.716 -0.754,0.822 v 0.018 c 0.594,0.072 0.95,0.454 0.95,0.985 0,0.558 -0.356,0.984 -1.11,0.984 h -1.754 v -3.517 h 0.727 v 1.441 h 0.133 c 0.31,0 0.433,-0.035 0.575,-0.176 0.141,-0.142 0.354,-0.443 0.479,-0.69 l 0.284,-0.575 z m -2.349,2.002 v 0.964 h 0.654 c 0.479,0 0.729,-0.168 0.729,-0.477 0,-0.248 -0.161,-0.487 -0.649,-0.487 z"
             style="fill:#2d2a26;fill-opacity:1;fill-rule:nonzero;stroke:none"
             id="path90"
             inkscape:connector-curvature="0" /></g><g
           id="g92"
           transform="translate(144.3403,113.5889)"><path
             d="m 0,0 c -1.165,0.015 -2.178,-0.211 -3.092,-1.62 -2.051,-2.658 -8.047,-19.044 -7.941,-22.312 0.037,-1.172 0.685,-2.201 2.133,-2.201 1.658,0 2.58,1.145 3.396,2.529 1.887,3.196 7.193,17.678 7.338,21.299 C 1.876,-1.25 1.701,-0.021 0,0 m 11.501,-8.217 c -1.204,-6.002 -3.916,-13.101 -6.858,-18.392 -4.801,-8.633 -10.633,-9.842 -15.724,-9.782 -5.091,0.061 -10.83,1.942 -10.872,9.795 -0.032,5.639 2.402,13.599 4.465,18.816 3.599,9.458 7.277,17.17 18.904,17.032 13.559,-0.161 11.14,-12.22 10.085,-17.469 m -43.056,8.414 c -1.961,0 -3.244,-1.242 -4.199,-2.584 -2.1,-2.951 -6.657,-14.781 -7.366,-19.64 -0.486,-3.328 0.952,-4.006 2.524,-4.006 2.519,0 5.344,2.666 6.309,7.066 0,0 -4.797,0.115 -3.475,4.37 1.285,4.128 3.722,5.023 7.763,5.188 7.962,0.326 7.175,-5.553 6.538,-8.689 -2.068,-10.179 -9.314,-18.357 -19.562,-18.357 -7.015,0 -11.371,3.881 -11.371,11.037 0,5.096 2.529,13.101 4.534,17.784 4.267,9.968 8.74,16.945 20.143,16.945 6.838,0 12.235,-2.458 11.444,-8.867 -0.581,-4.703 -2.934,-7.465 -7.209,-7.798 -1.198,-0.093 -6.091,0.03 -4.467,4.66 0.566,1.618 0.801,2.891 -1.606,2.891 m -35.668,-17.633 c -0.468,-1.269 -1.359,-3.929 -2.076,-6.75 2.328,0.582 4.074,0.987 7.066,0.915 3.408,-0.084 5.586,-1.497 5.586,-4.315 0,-6.832 -7.552,-8.838 -12.789,-8.838 -5.751,0 -10.804,3.276 -10.804,9.565 0,7.373 3.998,18.554 7.749,26.002 4.606,9.145 9.313,10.361 17.418,10.361 3.563,0 7.667,-1.524 7.667,-4.885 0,-4.663 -3.949,-6.442 -7.865,-6.666 -1.673,-0.096 -4.246,-0.188 -5.787,-0.079 0,0 -1.303,-1.987 -2.69,-5.524 7.253,1.021 10.328,-0.625 9.103,-4.821 -1.654,-5.668 -6.564,-6.041 -12.578,-4.965 m -23.097,-6.552 c 7.092,1.232 8.876,-1.332 8.653,-3.707 -0.669,-7.11 -7.192,-8.7 -12.854,-8.567 -4.107,0.098 -7.8,1.979 -7.903,6.748 -0.18,8.342 8.328,27.641 12.333,34.039 1.849,3.036 4.103,4.538 7.697,4.538 3.407,0 4.251,-1.749 4.201,-3.843 -0.135,-5.588 -9.164,-22.574 -12.127,-29.208 M 0.896,13.488 c -7.326,0 -12.386,-2.905 -15.814,-6.961 -0.578,1.213 -1.018,1.746 -1.637,2.446 -2.805,3.171 -7.315,4.652 -13.365,4.652 -5.912,0 -10.84,-1.846 -14.262,-4.755 -1.777,2.889 -6.012,4.802 -11.12,4.802 -6.674,0 -13.947,-0.944 -18.26,-7.896 -0.104,2.503 -0.331,3.828 -1.738,5.318 -1.71,1.81 -4.477,2.283 -7.174,2.283 -4.912,0 -8.605,-2.146 -11.266,-6.514 -3.859,-6.165 -13.212,-26.443 -13.001,-36.265 0.137,-6.344 4.393,-10.916 12.011,-11.096 5.952,-0.141 10.619,1.449 13.59,4.447 2.665,-2.894 6.73,-4.592 11.595,-4.592 5.416,0 10.868,1.627 14.088,5.18 2.712,-3.332 6.98,-5.269 12.467,-5.242 7.175,0.033 13.476,3.435 17.594,8.65 2.257,-6.148 7.984,-8.588 14.239,-8.588 13.709,0 19.731,9.426 24.749,24.332 1.13,3.359 2.638,8.965 2.888,13.674 0.416,7.834 -2.9,16.125 -15.584,16.125"
             style="fill:#2d2a26;fill-opacity:1;fill-rule:nonzero;stroke:none"
             id="path94"
             inkscape:connector-curvature="0" /></g></g></g></g></svg>